<?xml version="1.0" encoding="UTF-8"?>
<svg version="1.1" xmlns="http://www.w3.org/2000/svg" width="834" height="201">
<path d="M0 0 C2.87679355 2.52745319 4.41132555 5.34364566 6.1875 8.71484375 C7.11369141 10.45991211 7.11369141 10.45991211 8.05859375 12.24023438 C8.70602538 13.47250066 9.35316146 14.70492228 10 15.9375 C16.21122354 27.69680376 22.58890641 39.3434662 29 51 C56.06 51.33 83.12 51.66 111 52 C110.16894219 56.15528905 109.61109594 58.07180453 107.5859375 61.53515625 C107.07981934 62.41260498 106.57370117 63.29005371 106.05224609 64.1940918 C105.22200928 65.61395386 105.22200928 65.61395386 104.375 67.0625 C99.21873926 76.02422845 94.23089153 85.06081859 89.375 94.1875 C83.34371126 105.51117623 77.2185608 116.77814807 71 128 C66.96107681 126.65369227 66.59686959 124.97063711 64.59375 121.26171875 C64.26894653 120.66688187 63.94414307 120.07204498 63.60949707 119.45918274 C62.56409052 117.53997029 61.53181222 115.61404911 60.5 113.6875 C59.83681387 112.46371738 59.17275854 111.24040538 58.5078125 110.01757812 C56.33427928 106.01402987 54.16733067 102.00690941 52 98 C46.555 88.1 46.555 88.1 41 78 C13.94 77.67 -13.12 77.34 -41 77 C-40.15412826 72.77064129 -39.41261669 70.53422777 -37.41015625 66.89453125 C-36.61291138 65.43430542 -36.61291138 65.43430542 -35.79956055 63.94458008 C-35.22633057 62.91099365 -34.65310059 61.87740723 -34.0625 60.8125 C-33.47057861 59.73315186 -32.87865723 58.65380371 -32.26879883 57.54174805 C-30.51976366 54.35711048 -28.76159741 51.17770244 -27 48 C-26.55946289 47.20335937 -26.11892578 46.40671875 -25.66503906 45.5859375 C-23.72664874 42.08186296 -21.78020579 38.58240093 -19.828125 35.0859375 C-17.4897612 30.89125641 -15.17304538 26.68489057 -12.859375 22.4765625 C-12.12346237 21.13891129 -11.3875411 19.80126483 -10.65161133 18.46362305 C-9.54707086 16.45582338 -8.44310568 14.44771809 -7.34091187 12.43862915 C-6.31081621 10.5611159 -5.27864955 8.68475484 -4.24609375 6.80859375 C-3.64466553 5.71345459 -3.0432373 4.61831543 -2.42358398 3.48999023 C-1 1 -1 1 0 0 Z " fill="#0E3193" transform="translate(71,51)"/>
<path d="M0 0 C20 0 20 0 24.3046875 3.78515625 C25.6706543 6.30200195 25.6706543 6.30200195 26.875 9.0625 C27.87701344 10.97495125 28.88099735 12.88637109 29.88671875 14.796875 C30.38349121 15.80427734 30.88026367 16.81167969 31.39208984 17.84960938 C34.19675093 23.34480322 37.46311279 28.55667456 40.6875 33.8125 C41.58927979 35.33339233 41.58927979 35.33339233 42.50927734 36.88500977 C43.06695801 37.81627686 43.62463867 38.74754395 44.19921875 39.70703125 C44.69252686 40.5369458 45.18583496 41.36686035 45.6940918 42.22192383 C46.1250415 42.80868896 46.55599121 43.3954541 47 44 C47.66 44 48.32 44 49 44 C50.291605 42.37401447 50.291605 42.37401447 51.546875 40.21484375 C52.05428223 39.38428467 52.56168945 38.55372559 53.08447266 37.69799805 C53.63409668 36.78703369 54.1837207 35.87606934 54.75 34.9375 C55.32927246 34.01042236 55.90854492 33.08334473 56.50537109 32.12817383 C59.67930287 27.01290928 62.61459927 21.87099864 65.3046875 16.484375 C65.8605957 15.43258057 66.41650391 14.38078613 66.98925781 13.29711914 C68.0570642 11.26717138 69.06774194 9.20583909 70.01074219 7.11499023 C71.5390625 4.29296875 71.5390625 4.29296875 76 0 C82.27 0 88.54 0 95 0 C95 21.45 95 42.9 95 65 C89.06 65 83.12 65 77 65 C76.67 54.11 76.34 43.22 76 32 C73.999375 35.238125 71.99875 38.47625 69.9375 41.8125 C68.7228793 43.73972393 67.50808247 45.66683688 66.29296875 47.59375 C64.40620845 50.62094045 62.63828502 53.59015045 61.17578125 56.84375 C58.91149349 61.55843137 57.21155752 63.45072555 52.3984375 65.6328125 C48.4724761 66.60854968 45.21975473 66.73119622 41.34765625 65.48144531 C32.91500896 60.16017828 28.05028882 47.75251456 23.63134766 39.13793945 C22.19165093 36.36864553 20.60582982 33.67638303 19 31 C18.67 42.22 18.34 53.44 18 65 C12.06 65 6.12 65 0 65 C0 43.55 0 22.1 0 0 Z " fill="#0E3193" transform="translate(710,83)"/>
<path d="M0 0 C1.89150787 0.00022659 1.89150787 0.00022659 3.82122803 0.00045776 C5.19234374 0.01067022 6.56345782 0.0211022 7.93457031 0.03173828 C9.34132689 0.03547021 10.74808608 0.03831634 12.15484619 0.04031372 C15.8505577 0.04793602 19.54611106 0.06757233 23.24176025 0.08972168 C27.01564393 0.11021042 30.78955325 0.1193219 34.56347656 0.12939453 C41.9632881 0.15081966 49.36296952 0.18493852 56.76269531 0.22705078 C56.30734432 1.79042251 55.84826755 3.35270927 55.38769531 4.91455078 C55.00484375 6.21972656 55.00484375 6.21972656 54.61425781 7.55126953 C53.78652217 10.15218198 52.77638722 12.69282101 51.76269531 15.22705078 C26.51769531 15.72205078 26.51769531 15.72205078 0.76269531 16.22705078 C-0.63501053 19.97396525 -0.63501053 19.97396525 0.76269531 22.22705078 C1.95233887 22.2416333 3.14198242 22.25621582 4.36767578 22.27124023 C8.82223114 22.32963648 13.27630265 22.40686366 17.73046875 22.48950195 C19.65063568 22.52255824 21.57089528 22.5506489 23.49121094 22.57348633 C26.2669997 22.60739019 29.04195383 22.65971987 31.81738281 22.71533203 C33.08520096 22.72491692 33.08520096 22.72491692 34.37863159 22.73469543 C41.57040055 22.90827889 48.432354 24.19988651 54.63769531 27.97705078 C59.65865516 33.29336121 61.04432021 36.86960022 61.32519531 44.16455078 C61.12558402 50.43234543 60.16753297 54.67941291 55.76269531 59.22705078 C50.52993274 63.78424882 46.34266284 65.35389791 39.45532227 65.34057617 C38.15419998 65.34050064 36.8530777 65.34042511 35.51252747 65.34034729 C34.09201011 65.33524063 32.67149314 65.33002464 31.25097656 65.32470703 C29.7979487 65.32284169 28.3449202 65.32141834 26.89189148 65.32041931 C23.06963359 65.31660324 19.24741376 65.30678072 15.4251709 65.29571533 C11.5240124 65.28548166 7.62284774 65.2809175 3.72167969 65.27587891 C-3.93133245 65.26515764 -11.58431323 65.24809213 -19.23730469 65.22705078 C-18.7819537 63.66367905 -18.32287693 62.10139229 -17.86230469 60.53955078 C-17.60707031 59.66943359 -17.35183594 58.79931641 -17.08886719 57.90283203 C-16.25573618 55.28496625 -15.28870815 52.76413305 -14.23730469 50.22705078 C-13.21040024 50.2149205 -13.21040024 50.2149205 -12.16275024 50.20254517 C-5.05785063 50.11670071 2.04676348 50.01720664 9.15136719 49.90966797 C11.80528989 49.87130897 14.45926582 49.83646852 17.11328125 49.80517578 C20.92109241 49.75967542 24.72853489 49.70165629 28.53613281 49.64111328 C29.7288681 49.62956207 30.92160339 49.61801086 32.15048218 49.60610962 C33.25147247 49.58623993 34.35246277 49.56637024 35.48681641 49.54589844 C36.45944427 49.53257477 37.43207214 49.5192511 38.43417358 49.50552368 C40.95439013 49.44744774 40.95439013 49.44744774 42.76269531 47.22705078 C42.47286263 43.92021612 42.47286263 43.92021612 40.76269531 41.22705078 C39.42400851 41.12066149 38.07991856 41.08088459 36.73706055 41.06933594 C35.45453651 41.05394272 35.45453651 41.05394272 34.14610291 41.03823853 C33.21391434 41.03093719 32.28172577 41.02363586 31.32128906 41.01611328 C29.35578625 40.98802328 27.39029158 40.9593587 25.42480469 40.93017578 C22.31990979 40.88905459 19.21516342 40.8521785 16.11010742 40.82568359 C13.11767843 40.79792052 10.12594605 40.75202404 7.13378906 40.70361328 C6.21577011 40.70036041 5.29775116 40.69710754 4.35191345 40.6937561 C-2.28264867 40.56844129 -8.13327307 39.71460225 -13.47949219 35.43017578 C-18.36754441 29.58322336 -20.55312973 24.92539165 -20.11230469 17.16455078 C-19.352207 11.34008127 -17.09616648 7.9000264 -12.73730469 3.97705078 C-8.2799126 0.85687632 -5.50949959 -0.022038 0 0 Z " fill="#0E3193" transform="translate(232.2373046875,82.77294921875)"/>
<path d="M0 0 C16.40004648 -0.16043524 16.40004648 -0.16043524 23.42578125 -0.1953125 C28.2077016 -0.21916403 32.98931369 -0.24728807 37.77099609 -0.30175781 C41.62896081 -0.3454269 45.48659467 -0.36918115 49.3447876 -0.37950897 C50.81192224 -0.38686282 52.27904009 -0.40122288 53.74603271 -0.42292023 C70.15785857 -0.65585992 70.15785857 -0.65585992 76.50561523 5.44769287 C81.54875266 11.1644924 82.45805641 15.48816772 82.3125 22.95703125 C81.70816655 28.84172824 79.42957954 32.99630725 75 36.875 C71.00870577 39.70216675 68.14009722 41.19352083 63.25 41.625 C62.45078125 41.69976562 61.6515625 41.77453125 60.828125 41.8515625 C60.22484375 41.90054688 59.6215625 41.94953125 59 42 C61.68498391 44.54433543 64.37344595 47.08496714 67.0625 49.625 C67.81466797 50.33785156 68.56683594 51.05070312 69.34179688 51.78515625 C72.84927486 55.0952437 76.37075286 58.35196405 80.05859375 61.4609375 C81.02925781 62.29882812 81.99992188 63.13671875 83 64 C83 64.33 83 64.66 83 65 C74.58727765 67.18420764 65.20642759 68.54203222 57 65 C46.83313444 58.44797341 38.59630909 48.36761811 30.74201965 39.29244995 C27.40286974 35.43767045 23.95816275 32.21349524 20 29 C20 28.67 20 28.34 20 28 C21.09465576 27.98018066 22.18931152 27.96036133 23.31713867 27.93994141 C27.38947029 27.86370563 31.46145296 27.7750162 35.53344727 27.68261719 C37.29379371 27.64440159 39.05421626 27.60953587 40.81469727 27.578125 C43.34939725 27.53231286 45.88357664 27.47434583 48.41796875 27.4140625 C49.59325386 27.39673569 49.59325386 27.39673569 50.7922821 27.37905884 C54.91062087 27.26853588 58.35771367 27.01798199 62 25 C63.16977494 22.65127469 63.16977494 22.65127469 63 20 C62.18022258 17.70455632 62.18022258 17.70455632 60 16 C56.92556054 15.36169271 53.86969502 15.39468518 50.73828125 15.390625 C49.93531616 15.37499512 49.13235107 15.35936523 48.30505371 15.34326172 C45.30783561 15.29069134 42.31009541 15.27239997 39.3125 15.25 C29.2578125 15.12625 29.2578125 15.12625 19 15 C19 31.5 19 48 19 65 C12.73 65 6.46 65 0 65 C0 43.55 0 22.1 0 0 Z " fill="#0E3193" transform="translate(431,83)"/>
<path d="M0 0 C6.27 0 12.54 0 19 0 C19.02578125 3.12984375 19.0515625 6.2596875 19.078125 9.484375 C19.11653884 12.51604199 19.16170127 15.54753852 19.20751953 18.57910156 C19.23574279 20.6857896 19.25695056 22.7925838 19.27099609 24.89941406 C19.29240661 27.9282878 19.3390476 30.95588331 19.390625 33.984375 C19.39185364 34.92617615 19.39308228 35.86797729 19.39434814 36.83831787 C19.47365752 42.03276037 19.47365752 42.03276037 21.78808594 46.56347656 C27.08652652 50.00453886 33.19647303 49.21943897 39.3125 49.25 C40.84293945 49.2809375 40.84293945 49.2809375 42.40429688 49.3125 C48.37873633 49.34339561 52.7632561 48.97591515 58 46 C59.15291684 43.69416631 59.15397338 42.30133113 59.20532227 39.73388672 C59.22526749 38.85312469 59.24521271 37.97236267 59.26576233 37.06491089 C59.29083107 35.63672531 59.29083107 35.63672531 59.31640625 34.1796875 C59.33718735 33.20589142 59.35796844 32.23209534 59.37937927 31.22879028 C59.44488598 28.11093353 59.50376497 24.99299097 59.5625 21.875 C59.60568415 19.76431396 59.6492984 17.65363667 59.69335938 15.54296875 C59.80056853 10.36206764 59.90183283 5.18108001 60 0 C66.27 0 72.54 0 79 0 C79.12427568 6.65276397 79.21465915 13.30484137 79.2746582 19.95849609 C79.29968909 22.21838157 79.33372438 24.47818702 79.37719727 26.73779297 C79.43835233 29.99987619 79.46632502 33.26088245 79.48828125 36.5234375 C79.51408768 37.52176605 79.5398941 38.5200946 79.56648254 39.54867554 C79.56929848 46.70857558 77.91443356 51.97829179 74 58 C71.68359375 60.25390625 71.68359375 60.25390625 69.4375 61.5625 C68.32181641 62.24505859 68.32181641 62.24505859 67.18359375 62.94140625 C63.70550932 64.62756167 60.57010321 65.12521661 56.72558594 65.16113281 C55.47343292 65.17554413 55.47343292 65.17554413 54.19598389 65.19024658 C53.30115295 65.19449646 52.40632202 65.19874634 51.484375 65.203125 C50.08967987 65.21167511 50.08967987 65.21167511 48.66680908 65.22039795 C46.69992201 65.22983571 44.73301921 65.23637707 42.76611328 65.24023438 C39.77478011 65.24991977 36.78414019 65.28094652 33.79296875 65.3125 C31.87760823 65.31903269 29.96224281 65.32428212 28.046875 65.328125 C27.16014099 65.3404718 26.27340698 65.3528186 25.35980225 65.36553955 C18.47943032 65.34117181 13.32543964 63.93339514 7.3125 60.4375 C0.67853444 53.44494171 -0.72960134 45.85897002 -0.48828125 36.5234375 C-0.48120651 35.47217682 -0.47413177 34.42091614 -0.46684265 33.33779907 C-0.43909827 30.01610831 -0.37639651 26.69617179 -0.3125 23.375 C-0.28739139 21.10809745 -0.26458275 18.84116819 -0.24414062 16.57421875 C-0.18933688 11.04881453 -0.10320316 5.52470353 0 0 Z " fill="#0E3193" transform="translate(617,83)"/>
<path d="M0 0 C23.10971688 -2.07548407 23.10971688 -2.07548407 28.79296875 2.28515625 C31.20111657 4.70429646 33.10345895 7.42215554 34.91015625 10.31005859 C36.7141485 13.10737812 38.86411845 15.57343264 41 18.125 C41.70125 19.01445313 42.4025 19.90390625 43.125 20.8203125 C44.99316736 23.18975364 44.99316736 23.18975364 48 25 C49.27020452 23.52776634 50.53957353 22.05480514 51.80517578 20.57861328 C52.90489255 19.30454716 54.01419373 18.03869879 55.13232422 16.78076172 C57.75019874 13.80340888 59.94378399 11.1006767 61.88671875 7.62109375 C64.02191726 3.94087519 65.29944616 2.18887541 69 0 C77.57698941 -1.34717861 86.38178275 -0.67044123 95 0 C88.50965967 7.57800363 81.95662793 15.07433539 75.20410156 22.42089844 C72.1452024 25.74926703 69.09512854 29.0851215 66.0625 32.4375 C65.37285156 33.19933594 64.68320312 33.96117187 63.97265625 34.74609375 C63.32167969 35.48988281 62.67070313 36.23367187 62 37 C61.27167969 37.67546875 60.54335938 38.3509375 59.79296875 39.046875 C56.96425773 43.70592844 57.32190372 48.46220988 57.25 53.8125 C57.20552734 55.42415039 57.20552734 55.42415039 57.16015625 57.06835938 C57.08966347 59.71183877 57.04254347 62.35592311 57 65 C50.73 65 44.46 65 38 65 C38.10183594 63.5253125 38.20367188 62.050625 38.30859375 60.53125 C38.64514353 50.69089907 38.77476293 42.65540061 31.90649414 35.05078125 C29.32892043 32.52803635 26.6794095 30.11767363 23.94555664 27.765625 C21.27343177 25.34062725 18.97577295 22.66045972 16.63867188 19.91674805 C15.1470621 18.17201795 13.61875695 16.48066152 12.05078125 14.8046875 C11.59509766 14.31613281 11.13941406 13.82757813 10.66992188 13.32421875 C9.75559692 12.34806175 8.83887757 11.37414262 7.91992188 10.40234375 C4.8654579 7.11694313 2.39065189 3.77353483 0 0 Z " fill="#0E3193" transform="translate(510,83)"/>
<path d="M0 0 C25.74 0 51.48 0 78 0 C76 9 76 9 74 15 C64.43 15 54.86 15 45 15 C45 31.5 45 48 45 65 C39.06 65 33.12 65 27 65 C27 48.5 27 32 27 15 C16.44 15 5.88 15 -5 15 C-4 9 -4 9 0 0 Z " fill="#0E3193" transform="translate(306,83)"/>
<path d="M0 0 C6.27 0 12.54 0 19 0 C19 21.45 19 42.9 19 65 C12.73 65 6.46 65 0 65 C0 43.55 0 22.1 0 0 Z " fill="#0E3193" transform="translate(398,83)"/>
<path d="M0 0 C15.84 0 31.68 0 48 0 C46.41836392 3.95409019 44.7440888 7.49367831 42.734375 11.2265625 C42.26055389 12.10905167 42.26055389 12.10905167 41.77716064 13.0093689 C40.77058264 14.88258994 39.7603238 16.75379713 38.75 18.625 C38.08700373 19.85794612 37.42424136 21.09101805 36.76171875 22.32421875 C32.86871831 29.56450568 28.94576542 36.78832639 25 44 C24.34 44 23.68 44 23 44 C22.62302979 43.29617187 22.24605957 42.59234375 21.85766602 41.8671875 C20.09429972 38.57721682 18.32884522 35.28837186 16.5625 32 C16.24553162 31.40952881 15.92856323 30.81905762 15.60198975 30.21069336 C11.33380133 22.26420893 7.02166218 14.34749245 2.49047852 6.546875 C0 2.20997622 0 2.20997622 0 0 Z " fill="#F1BA2E" transform="translate(85,51)"/>
<path d="M0 0 C0.66 0 1.32 0 2 0 C2.34144043 0.63276855 2.68288086 1.26553711 3.03466797 1.91748047 C4.64699241 4.90392665 6.26072363 7.88960842 7.875 10.875 C8.45983154 11.956604 9.04466309 13.03820801 9.6472168 14.15258789 C13.74122653 21.71054545 17.88371407 29.23926512 22.10302734 36.72802734 C25 41.89504304 25 41.89504304 25 43 C9.16 43 -6.68 43 -23 43 C-18.58495262 34.16990523 -14.1591561 25.53615614 -9.25 17 C-4.41728357 8.61060804 -4.41728357 8.61060804 0 0 Z " fill="#F1BA2E" transform="translate(102,136)"/>
</svg>
