<?xml version="1.0" encoding="utf-8"?>
<!-- Generator: Adobe Illustrator 24.2.3, SVG Export Plug-In . SVG Version: 6.00 Build 0)  -->
<svg version="1.1" id="Layer_1" xmlns="http://www.w3.org/2000/svg" xmlns:xlink="http://www.w3.org/1999/xlink" x="0px" y="0px"
	 viewBox="0 0 442.7 120.58" style="enable-background:new 0 0 442.7 120.58;" xml:space="preserve">
<style type="text/css">
	.st0{fill:#005BAA;}
	.st1{fill:#E0E1DF;}
	.st2{fill-rule:evenodd;clip-rule:evenodd;fill:#005BAA;}
	.st3{fill-rule:evenodd;clip-rule:evenodd;fill:#F1BF50;}
	.st4{fill-rule:evenodd;clip-rule:evenodd;fill:#FFFFFF;}
	.st5{fill-rule:evenodd;clip-rule:evenodd;}
</style>
<g>
	<g>
		<polygon class="st2" points="108.26,54.67 68.85,54.67 55.2,29.81 35.39,65.91 74.8,65.91 88.44,90.77 		"/>
		<g>
			<path class="st3" d="M73.21,50.12l11.15-20.31H62.07L73.21,50.12z"/>
			<path class="st3" d="M70.43,70.46L59.28,90.77h22.29L70.43,70.46z"/>
		</g>
	</g>
	<g>
		<path class="st2" d="M133.17,55.62h17.84c0.75,0,1.38,0.27,1.89,0.81c0.52,0.52,0.79,1.15,0.79,1.89s-0.27,1.37-0.81,1.91
			c-0.54,0.54-1.21,0.81-1.98,0.81h-25.05l-2.33,6.69h27.7c3.04,0,5.52-0.98,7.44-2.94c1.92-1.95,2.87-4.27,2.87-6.96
			c0-2.58-0.95-4.85-2.87-6.79c-1.85-1.89-4.34-2.83-7.44-2.83H134.2c-0.69,0-1.3-0.23-1.82-0.7c-0.46-0.52-0.69-1.06-0.72-1.62
			c0.02-0.69,0.26-1.27,0.72-1.71c0.47-0.48,1.03-0.72,1.69-0.72h22.97l2.33-6.67h-26.2c-3.06,0-5.48,0.89-7.27,2.67
			c-1.85,1.85-2.79,4.04-2.79,6.59c0,2.63,0.94,4.87,2.79,6.74C127.78,54.67,130.19,55.62,133.17,55.62z"/>
		<path class="st2" d="M180.85,67.73h8.46V43.5h13.6l2.27-6.72h-37.21l-2.29,6.72h15.16V67.73z"/>
		<path class="st2" d="M220.74,36.79h-8.43v30.94h8.43V36.79z"/>
		<path class="st2" d="M256.66,36.79H228.1v30.94h8.51V43.67h18.72c1,0,1.81,0.33,2.4,0.96c0.62,0.62,0.93,1.38,0.93,2.29
			c0,0.88-0.32,1.64-0.95,2.27c-0.66,0.66-1.48,0.97-2.45,0.97h-17.39l17.75,17.56h11.57l-12.5-11.37h2.03
			c3.04,0,5.52-0.98,7.42-2.92c1.93-1.98,2.9-4.29,2.9-6.94c0-2.64-0.96-4.91-2.9-6.85C262.25,37.74,259.74,36.79,256.66,36.79z"/>
		<path class="st2" d="M292.67,56.99l18.27-20.2h-11.3L288.46,49.8l-11.15-13.01h-11.34l18.27,20.2v10.74h8.43V56.99z"/>
		<path class="st2" d="M354.77,36.79h-8.45v19.39c0,1.37-0.48,2.46-1.44,3.28c-0.96,0.84-2.19,1.28-3.72,1.28h-10.19
			c-1.48,0-2.71-0.43-3.7-1.28c-0.96-0.82-1.45-1.91-1.45-3.28V36.79h-8.5v20.65c0,2.71,1.04,5.1,3.12,7.18
			c2.12,2.08,4.91,3.12,8.36,3.12h14.5c3.51,0,6.28-1.04,8.36-3.12c2.08-2.08,3.12-4.47,3.12-7.18V36.79z"/>
		<path class="st2" d="M388.25,67.26l10.62-17.5v17.97h8.43V36.79h-8.43l-14.05,22.83L370.8,36.79h-8.68v30.94h8.21V49.75
			l10.65,17.5H388.25z"/>
		<path class="st3" d="M125.37,76c0.9,0,1.59,0.36,2.09,1.11l-0.76,0.57c-0.33-0.53-0.76-0.8-1.31-0.8c-0.5,0-0.9,0.16-1.18,0.49
			c-0.28,0.34-0.42,0.77-0.42,1.31c0,0.53,0.14,0.97,0.42,1.3c0.29,0.34,0.68,0.52,1.2,0.52c0.56,0,1.01-0.27,1.34-0.81l0.75,0.57
			c-0.48,0.75-1.18,1.13-2.09,1.13c-0.8,0-1.44-0.26-1.92-0.76c-0.48-0.5-0.72-1.15-0.72-1.95s0.23-1.44,0.72-1.95
			C123.94,76.25,124.59,76,125.37,76z"/>
		<path class="st3" d="M128.75,76.77c0.49-0.5,1.14-0.76,1.91-0.76c0.77,0,1.41,0.26,1.91,0.76c0.5,0.52,0.75,1.16,0.75,1.95
			c0,0.79-0.25,1.42-0.75,1.93c-0.5,0.5-1.14,0.76-1.91,0.76c-0.77,0-1.42-0.26-1.91-0.76c-0.5-0.52-0.75-1.15-0.75-1.93
			C128,77.93,128.25,77.28,128.75,76.77z M131.83,77.41c-0.3-0.34-0.7-0.52-1.17-0.52c-0.48,0-0.87,0.18-1.18,0.52
			c-0.3,0.34-0.46,0.77-0.46,1.3c0,0.52,0.15,0.95,0.46,1.29c0.32,0.33,0.7,0.5,1.18,0.5c0.47,0,0.87-0.18,1.17-0.5
			c0.32-0.34,0.47-0.77,0.47-1.29C132.3,78.19,132.15,77.75,131.83,77.41z"/>
		<path class="st3" d="M137.04,76c0.62,0,1.1,0.2,1.45,0.6c0.34,0.41,0.52,0.95,0.52,1.62v3.08H138v-3.01c0-0.4-0.12-0.72-0.33-0.96
			c-0.22-0.25-0.5-0.36-0.88-0.36c-0.5,0-0.96,0.27-1.35,0.82v3.52h-1.01V76.1h0.93l0.04,0.63C135.78,76.25,136.34,76,137.04,76z"/>
		<path class="st3" d="M143.08,76c0.62,0,1.1,0.2,1.44,0.6c0.35,0.41,0.53,0.95,0.53,1.62v3.08h-1.01v-3.01
			c0-0.4-0.12-0.72-0.33-0.96c-0.22-0.25-0.52-0.36-0.88-0.36c-0.5,0-0.96,0.27-1.35,0.82v3.52h-1.01V76.1h0.91l0.05,0.63
			C141.82,76.25,142.37,76,143.08,76z"/>
		<path class="st3" d="M148.51,76c0.75,0,1.32,0.25,1.74,0.75s0.62,1.14,0.62,1.91v0.4h-3.81c0.01,0.48,0.15,0.84,0.42,1.09
			c0.27,0.26,0.66,0.38,1.15,0.38c0.62,0,1.09-0.21,1.41-0.66l0.7,0.59c-0.52,0.63-1.22,0.95-2.11,0.95c-0.8,0-1.43-0.26-1.9-0.75
			c-0.47-0.5-0.7-1.15-0.7-1.95c0-0.79,0.23-1.43,0.7-1.95C147.18,76.25,147.78,76,148.51,76z M148.51,76.87
			c-0.42,0-0.76,0.12-1.02,0.38c-0.27,0.25-0.41,0.57-0.43,0.98h2.8c-0.01-0.41-0.14-0.74-0.38-0.98
			C149.24,76.99,148.92,76.87,148.51,76.87z"/>
		<path class="st3" d="M154.13,76c0.89,0,1.58,0.36,2.08,1.11l-0.75,0.57c-0.34-0.53-0.77-0.8-1.32-0.8c-0.5,0-0.9,0.16-1.18,0.49
			c-0.28,0.34-0.41,0.77-0.41,1.31c0,0.53,0.14,0.97,0.42,1.3c0.28,0.34,0.68,0.52,1.18,0.52c0.56,0,1.01-0.27,1.34-0.81l0.76,0.57
			c-0.49,0.75-1.2,1.13-2.1,1.13c-0.8,0-1.44-0.26-1.91-0.76c-0.48-0.5-0.73-1.15-0.73-1.95s0.23-1.44,0.72-1.95
			S153.34,76,154.13,76z"/>
		<path class="st3" d="M158.59,74.34v1.76h1.64v0.88h-1.64v2.58c0,0.29,0.08,0.52,0.25,0.68c0.16,0.16,0.38,0.25,0.64,0.25
			c0.32,0,0.56-0.06,0.75-0.16l0.28,0.8c-0.3,0.19-0.68,0.29-1.11,0.29c-0.56,0-1.01-0.16-1.34-0.48c-0.32-0.32-0.48-0.77-0.48-1.37
			v-2.58h-1.02V76.1h1.02v-1.76H158.59z"/>
		<path class="st3" d="M162.38,76.1v5.21h-1.02V76.1H162.38z M161.87,73.77c0.19,0,0.34,0.06,0.47,0.19s0.2,0.29,0.2,0.47
			c0,0.2-0.07,0.35-0.2,0.48s-0.28,0.19-0.47,0.19s-0.35-0.06-0.47-0.19c-0.13-0.13-0.19-0.28-0.19-0.48c0-0.18,0.06-0.34,0.19-0.47
			C161.52,73.82,161.68,73.77,161.87,73.77z"/>
		<path class="st3" d="M166.58,76c0.61,0,1.09,0.2,1.44,0.6c0.35,0.41,0.53,0.95,0.53,1.62v3.08h-1.02v-3.01
			c0-0.4-0.11-0.72-0.33-0.96c-0.21-0.25-0.5-0.36-0.87-0.36c-0.52,0-0.96,0.27-1.35,0.82v3.52h-1.02V76.1h0.93l0.05,0.63
			C165.32,76.25,165.87,76,166.58,76z"/>
		<path class="st3" d="M171.93,76c0.74,0,1.29,0.25,1.66,0.73l0.04-0.63h0.93v5.06c0,0.81-0.25,1.45-0.73,1.92s-1.13,0.7-1.93,0.7
			c-0.98,0-1.78-0.36-2.39-1.09l0.67-0.67c0.47,0.57,1.04,0.86,1.71,0.86c0.5,0,0.9-0.15,1.21-0.46c0.3-0.32,0.45-0.73,0.45-1.24
			v-0.45c-0.38,0.45-0.91,0.67-1.61,0.67c-0.72,0-1.29-0.26-1.74-0.76c-0.45-0.52-0.67-1.16-0.67-1.95s0.22-1.43,0.67-1.93
			C170.64,76.25,171.22,76,171.93,76z M172.11,76.9c-0.45,0-0.82,0.18-1.11,0.5s-0.45,0.76-0.45,1.3s0.15,0.97,0.45,1.3
			c0.29,0.34,0.67,0.5,1.11,0.5c0.6,0,1.08-0.29,1.43-0.88v-1.84C173.18,77.2,172.7,76.9,172.11,76.9z"/>
		<path class="st3" d="M178.87,76.77c0.49-0.5,1.14-0.76,1.91-0.76s1.41,0.26,1.91,0.76c0.5,0.52,0.75,1.16,0.75,1.95
			c0,0.79-0.25,1.42-0.75,1.93c-0.5,0.5-1.14,0.76-1.91,0.76s-1.42-0.26-1.91-0.76c-0.5-0.52-0.75-1.15-0.75-1.93
			C178.12,77.93,178.37,77.28,178.87,76.77z M181.95,77.41c-0.3-0.34-0.7-0.52-1.17-0.52c-0.48,0-0.87,0.18-1.18,0.52
			c-0.3,0.34-0.46,0.77-0.46,1.3c0,0.52,0.15,0.95,0.46,1.29c0.32,0.33,0.7,0.5,1.18,0.5c0.47,0,0.87-0.18,1.17-0.5
			c0.32-0.34,0.47-0.77,0.47-1.29C182.42,78.19,182.27,77.75,181.95,77.41z"/>
		<path class="st3" d="M186.67,73.44c0.47,0,0.84,0.12,1.14,0.36l-0.39,0.8c-0.19-0.18-0.41-0.27-0.7-0.27
			c-0.25,0-0.46,0.09-0.6,0.27c-0.15,0.18-0.22,0.41-0.22,0.7v0.8h1.36v0.88h-1.36v4.33h-1.02v-4.33h-0.93V76.1h0.93v-0.75
			c0-0.56,0.16-1.03,0.49-1.38C185.68,73.61,186.13,73.44,186.67,73.44z"/>
		<path class="st3" d="M190.37,73.44c0.47,0,0.84,0.12,1.14,0.36l-0.39,0.8c-0.19-0.18-0.41-0.27-0.69-0.27
			c-0.26,0-0.46,0.09-0.61,0.27c-0.15,0.18-0.22,0.41-0.22,0.7v0.8h1.36v0.88h-1.36v4.33h-1.02v-4.33h-0.93V76.1h0.93v-0.75
			c0-0.56,0.16-1.03,0.49-1.38C189.4,73.61,189.83,73.44,190.37,73.44z"/>
		<path class="st3" d="M193.64,76c0.69,0,1.27,0.19,1.74,0.56l-0.43,0.79c-0.4-0.3-0.83-0.46-1.3-0.46c-0.63,0-0.95,0.21-0.95,0.61
			c0,0.2,0.07,0.34,0.22,0.42c0.15,0.09,0.43,0.19,0.87,0.29c0.61,0.14,1.06,0.34,1.34,0.6s0.42,0.57,0.42,0.97
			c0,0.49-0.19,0.88-0.56,1.17c-0.38,0.29-0.88,0.45-1.52,0.45c-0.81,0-1.47-0.21-1.97-0.63l0.46-0.81
			c0.42,0.35,0.93,0.54,1.52,0.54c0.7,0,1.04-0.22,1.04-0.66c0-0.21-0.07-0.36-0.23-0.47c-0.16-0.09-0.46-0.2-0.87-0.29
			c-0.61-0.14-1.06-0.33-1.32-0.56c-0.27-0.23-0.41-0.55-0.41-0.96c0-0.49,0.18-0.87,0.54-1.15C192.57,76.13,193.03,76,193.64,76z"
			/>
		<path class="st3" d="M197.71,73.44v3.24c0.42-0.45,0.95-0.67,1.59-0.67c0.62,0,1.1,0.2,1.44,0.6c0.35,0.41,0.53,0.95,0.53,1.62
			v3.08h-1.01v-3.01c0-0.4-0.12-0.72-0.33-0.96c-0.22-0.25-0.52-0.36-0.88-0.36c-0.5,0-0.96,0.27-1.35,0.82v3.52h-1.01v-7.87H197.71
			z"/>
		<path class="st3" d="M203,76.77c0.5-0.5,1.14-0.76,1.91-0.76c0.77,0,1.41,0.26,1.91,0.76c0.5,0.52,0.76,1.16,0.76,1.95
			c0,0.79-0.26,1.42-0.76,1.93c-0.5,0.5-1.14,0.76-1.91,0.76c-0.77,0-1.41-0.26-1.91-0.76c-0.5-0.52-0.75-1.15-0.75-1.93
			C202.25,77.93,202.5,77.28,203,76.77z M206.09,77.41c-0.32-0.34-0.7-0.52-1.18-0.52c-0.48,0-0.87,0.18-1.17,0.52
			c-0.3,0.34-0.46,0.77-0.46,1.3c0,0.52,0.15,0.95,0.46,1.29c0.3,0.33,0.69,0.5,1.17,0.5c0.48,0,0.87-0.18,1.18-0.5
			c0.3-0.34,0.46-0.77,0.46-1.29C206.55,78.19,206.4,77.75,206.09,77.41z"/>
		<path class="st3" d="M211.21,76v1.01h-0.09c-0.54,0-1.01,0.29-1.41,0.87v3.42h-1.02V76.1h0.93l0.05,0.72
			C210,76.27,210.51,76,211.21,76z"/>
		<path class="st3" d="M214.15,76c0.74,0,1.32,0.25,1.74,0.75s0.61,1.14,0.61,1.91v0.4h-3.81c0.01,0.48,0.16,0.84,0.43,1.09
			c0.27,0.26,0.66,0.38,1.14,0.38c0.62,0,1.09-0.21,1.42-0.66l0.7,0.59c-0.52,0.63-1.22,0.95-2.12,0.95c-0.79,0-1.42-0.26-1.89-0.75
			c-0.47-0.5-0.7-1.15-0.7-1.95c0-0.79,0.23-1.43,0.69-1.95C212.82,76.25,213.42,76,214.15,76z M214.15,76.87
			c-0.42,0-0.76,0.12-1.03,0.38c-0.26,0.25-0.4,0.57-0.43,0.98h2.81c-0.02-0.41-0.14-0.74-0.38-0.98
			C214.89,76.99,214.56,76.87,214.15,76.87z"/>
		<path class="st3" d="M224.62,73.44v7.87h-0.91l-0.05-0.63c-0.38,0.49-0.93,0.74-1.66,0.74c-0.72,0-1.29-0.26-1.74-0.76
			c-0.45-0.52-0.67-1.16-0.67-1.95s0.22-1.43,0.67-1.93c0.45-0.52,1.02-0.76,1.74-0.76c0.7,0,1.23,0.21,1.62,0.66v-3.22H224.62z
			 M222.18,76.9c-0.46,0-0.83,0.18-1.13,0.5s-0.43,0.76-0.43,1.3s0.14,0.97,0.43,1.3c0.29,0.34,0.67,0.5,1.13,0.5
			c0.6,0,1.07-0.29,1.43-0.88v-1.84C223.25,77.2,222.78,76.9,222.18,76.9z"/>
		<path class="st3" d="M228.22,76c0.74,0,1.32,0.25,1.74,0.75s0.61,1.14,0.61,1.91v0.4h-3.81c0.01,0.48,0.16,0.84,0.43,1.09
			c0.27,0.26,0.66,0.38,1.15,0.38c0.62,0,1.09-0.21,1.41-0.66l0.7,0.59c-0.52,0.63-1.22,0.95-2.11,0.95c-0.8,0-1.43-0.26-1.9-0.75
			c-0.47-0.5-0.7-1.15-0.7-1.95c0-0.79,0.23-1.43,0.7-1.95C226.89,76.25,227.49,76,228.22,76z M228.22,76.87
			c-0.42,0-0.76,0.12-1.03,0.38c-0.26,0.25-0.4,0.57-0.43,0.98h2.81c-0.02-0.41-0.14-0.74-0.38-0.98
			C228.96,76.99,228.63,76.87,228.22,76.87z"/>
		<path class="st3" d="M236.4,76.1l-2.66,5.31h-0.05l-2.68-5.31h1.14l1.57,3.18l1.56-3.18H236.4z"/>
		<path class="st3" d="M239.31,76c0.75,0,1.32,0.25,1.74,0.75c0.41,0.5,0.62,1.14,0.62,1.91v0.4h-3.81
			c0.01,0.48,0.15,0.84,0.43,1.09c0.27,0.26,0.64,0.38,1.14,0.38c0.62,0,1.09-0.21,1.41-0.66l0.7,0.59
			c-0.5,0.63-1.21,0.95-2.11,0.95c-0.79,0-1.42-0.26-1.89-0.75c-0.47-0.5-0.7-1.15-0.7-1.95c0-0.79,0.22-1.43,0.69-1.95
			S238.59,76,239.31,76z M239.31,76.87c-0.41,0-0.76,0.12-1.02,0.38c-0.26,0.25-0.41,0.57-0.43,0.98h2.8
			c-0.01-0.41-0.13-0.74-0.36-0.98C240.05,76.99,239.73,76.87,239.31,76.87z"/>
		<path class="st3" d="M243.82,73.44v7.87h-1.02v-7.87H243.82z"/>
		<path class="st3" d="M245.69,76.77c0.5-0.5,1.14-0.76,1.91-0.76s1.41,0.26,1.91,0.76c0.5,0.52,0.76,1.16,0.76,1.95
			c0,0.79-0.26,1.42-0.76,1.93c-0.5,0.5-1.14,0.76-1.91,0.76s-1.41-0.26-1.91-0.76c-0.5-0.52-0.75-1.15-0.75-1.93
			C244.94,77.93,245.18,77.28,245.69,76.77z M248.78,77.41c-0.32-0.34-0.7-0.52-1.18-0.52s-0.87,0.18-1.17,0.52
			c-0.3,0.34-0.47,0.77-0.47,1.3c0,0.52,0.16,0.95,0.47,1.29c0.3,0.33,0.69,0.5,1.17,0.5s0.87-0.18,1.18-0.5
			c0.3-0.34,0.46-0.77,0.46-1.29C249.24,78.19,249.09,77.75,248.78,77.41z"/>
		<path class="st3" d="M254.01,76c0.7,0,1.29,0.25,1.72,0.76c0.45,0.5,0.67,1.15,0.67,1.93s-0.22,1.43-0.67,1.95
			c-0.43,0.5-1.02,0.76-1.72,0.76c-0.7,0-1.24-0.22-1.62-0.67v2.94h-1.02V76.1h0.93l0.04,0.63C252.71,76.25,253.27,76,254.01,76z
			 M253.82,76.9c-0.6,0-1.08,0.3-1.43,0.89v1.84c0.35,0.59,0.83,0.88,1.43,0.88c0.46,0,0.82-0.16,1.11-0.5
			c0.3-0.33,0.45-0.76,0.45-1.3s-0.14-0.97-0.45-1.3C254.64,77.07,254.28,76.9,253.82,76.9z"/>
		<path class="st3" d="M259.51,76c0.75,0,1.32,0.25,1.74,0.75c0.41,0.5,0.62,1.14,0.62,1.91v0.4h-3.81
			c0.01,0.48,0.15,0.84,0.42,1.09c0.28,0.26,0.66,0.38,1.15,0.38c0.62,0,1.09-0.21,1.41-0.66l0.7,0.59
			c-0.5,0.63-1.21,0.95-2.11,0.95c-0.8,0-1.42-0.26-1.9-0.75c-0.47-0.5-0.7-1.15-0.7-1.95c0-0.79,0.23-1.43,0.7-1.95
			C258.2,76.25,258.8,76,259.51,76z M259.51,76.87c-0.42,0-0.76,0.12-1.02,0.38c-0.26,0.25-0.41,0.57-0.43,0.98h2.8
			c-0.01-0.41-0.14-0.74-0.38-0.98C260.25,76.99,259.93,76.87,259.51,76.87z"/>
		<path class="st3" d="M265.53,76v1.01h-0.09c-0.54,0-1.01,0.29-1.41,0.87v3.42H263V76.1h0.93l0.05,0.72
			C264.32,76.27,264.83,76,265.53,76z"/>
		<path class="st3" d="M268.14,76c0.69,0,1.27,0.19,1.72,0.56l-0.43,0.79c-0.39-0.3-0.82-0.46-1.29-0.46
			c-0.63,0-0.95,0.21-0.95,0.61c0,0.2,0.07,0.34,0.22,0.42c0.14,0.09,0.43,0.19,0.86,0.29c0.61,0.14,1.06,0.34,1.34,0.6
			c0.29,0.26,0.43,0.57,0.43,0.97c0,0.49-0.19,0.88-0.57,1.17c-0.38,0.29-0.88,0.45-1.51,0.45c-0.81,0-1.47-0.21-1.98-0.63
			l0.47-0.81c0.41,0.35,0.93,0.54,1.52,0.54c0.69,0,1.04-0.22,1.04-0.66c0-0.21-0.08-0.36-0.25-0.47c-0.15-0.09-0.45-0.2-0.86-0.29
			c-0.62-0.14-1.06-0.33-1.32-0.56c-0.27-0.23-0.41-0.55-0.41-0.96c0-0.49,0.18-0.87,0.53-1.15C267.05,76.13,267.53,76,268.14,76z"
			/>
		<path class="st3" d="M280.58,76.15l-2.3,5.26h-0.04l-1.48-3.07l-1.49,3.07h-0.05l-2.29-5.26h1.13l1.25,2.99l1.42-2.99h0.04
			l1.42,2.99l1.25-2.99H280.58z"/>
		<path class="st3" d="M282.49,76.15v5.16h-1.01v-5.16H282.49z M281.99,73.82c0.19,0,0.35,0.06,0.47,0.19
			c0.13,0.13,0.2,0.28,0.2,0.47c0,0.19-0.07,0.35-0.2,0.47c-0.12,0.13-0.28,0.19-0.47,0.19c-0.19,0-0.34-0.06-0.47-0.19
			c-0.12-0.12-0.19-0.28-0.19-0.47c0-0.19,0.07-0.34,0.19-0.47C281.65,73.88,281.8,73.82,281.99,73.82z"/>
		<path class="st3" d="M285.42,74.4v1.75h1.63v0.87h-1.63v2.56c0,0.29,0.08,0.52,0.25,0.68c0.15,0.16,0.38,0.25,0.63,0.25
			c0.32,0,0.56-0.06,0.75-0.16l0.28,0.79c-0.3,0.19-0.68,0.29-1.11,0.29c-0.55,0-1-0.16-1.32-0.48c-0.32-0.32-0.48-0.76-0.48-1.35
			v-2.57h-1.01v-0.87h1.01V74.4H285.42z"/>
		<path class="st3" d="M289.17,73.5v3.21c0.41-0.45,0.94-0.67,1.58-0.67c0.61,0,1.08,0.2,1.43,0.6c0.34,0.41,0.52,0.94,0.52,1.62
			v3.05h-1.01v-2.99c0-0.39-0.11-0.7-0.32-0.95c-0.22-0.25-0.5-0.36-0.87-0.36c-0.5,0-0.95,0.27-1.34,0.82v3.48h-1.01V73.5H289.17z"
			/>
		<path class="st3" d="M297.58,73.5v7.81h-1.01V73.5H297.58z"/>
		<path class="st3" d="M301.16,76.04c0.74,0,1.31,0.26,1.72,0.75c0.41,0.5,0.61,1.14,0.61,1.89v0.41h-3.78
			c0.01,0.47,0.15,0.83,0.42,1.08s0.64,0.38,1.14,0.38c0.61,0,1.08-0.22,1.4-0.66l0.7,0.59c-0.52,0.62-1.21,0.94-2.1,0.94
			c-0.79,0-1.42-0.26-1.88-0.75c-0.47-0.49-0.7-1.14-0.7-1.92s0.23-1.43,0.69-1.93C299.85,76.3,300.44,76.04,301.16,76.04z
			 M301.16,76.91c-0.41,0-0.75,0.12-1.02,0.36c-0.26,0.25-0.4,0.57-0.42,0.98h2.78c-0.01-0.41-0.14-0.74-0.36-0.98
			C301.89,77.02,301.57,76.91,301.16,76.91z"/>
		<path class="st3" d="M306.52,76.04c0.73,0,1.28,0.25,1.65,0.73l0.04-0.62h0.91v5.16h-0.91l-0.04-0.63
			c-0.38,0.49-0.93,0.74-1.65,0.74c-0.72,0-1.29-0.26-1.72-0.76c-0.45-0.5-0.67-1.15-0.67-1.92c0-0.79,0.22-1.42,0.67-1.92
			C305.24,76.3,305.81,76.04,306.52,76.04z M306.7,76.93c-0.45,0-0.82,0.16-1.11,0.5c-0.29,0.33-0.43,0.75-0.43,1.29
			c0,0.53,0.14,0.96,0.43,1.29c0.29,0.33,0.67,0.49,1.11,0.49c0.6,0,1.07-0.29,1.42-0.87v-1.83
			C307.77,77.22,307.3,76.93,306.7,76.93z"/>
		<path class="st3" d="M315.22,73.5v7.81h-0.91l-0.05-0.63c-0.36,0.49-0.91,0.74-1.65,0.74c-0.7,0-1.28-0.26-1.72-0.76
			c-0.43-0.5-0.66-1.15-0.66-1.92c0-0.79,0.22-1.42,0.66-1.92c0.45-0.5,1.02-0.76,1.72-0.76c0.69,0,1.23,0.22,1.61,0.66v-3.2H315.22
			z M312.8,76.93c-0.46,0-0.82,0.16-1.11,0.5c-0.29,0.33-0.43,0.75-0.43,1.29c0,0.53,0.14,0.96,0.43,1.29
			c0.29,0.33,0.66,0.49,1.11,0.49c0.59,0,1.06-0.29,1.42-0.87v-1.83C313.85,77.22,313.38,76.93,312.8,76.93z"/>
		<path class="st3" d="M317.8,76.15v5.16h-1.01v-5.16H317.8z M317.31,73.82c0.19,0,0.34,0.06,0.47,0.19s0.19,0.28,0.19,0.47
			c0,0.19-0.06,0.35-0.19,0.47c-0.13,0.13-0.28,0.19-0.47,0.19s-0.35-0.06-0.47-0.19c-0.13-0.12-0.19-0.28-0.19-0.47
			c0-0.19,0.06-0.34,0.19-0.47C316.96,73.88,317.12,73.82,317.31,73.82z"/>
		<path class="st3" d="M321.99,76.04c0.61,0,1.09,0.2,1.43,0.6c0.35,0.41,0.52,0.94,0.52,1.62v3.05h-1.01v-2.99
			c0-0.39-0.11-0.7-0.32-0.95c-0.22-0.25-0.5-0.36-0.87-0.36c-0.5,0-0.95,0.27-1.34,0.82v3.48h-1.01v-5.16h0.91l0.05,0.62
			C320.73,76.29,321.29,76.04,321.99,76.04z"/>
		<path class="st3" d="M327.29,76.04c0.73,0,1.28,0.25,1.65,0.73l0.04-0.62h0.91v5.02c0,0.81-0.23,1.44-0.72,1.9
			c-0.48,0.47-1.11,0.7-1.92,0.7c-0.97,0-1.77-0.36-2.37-1.08l0.67-0.66c0.47,0.56,1.03,0.84,1.69,0.84c0.5,0,0.9-0.15,1.2-0.46
			c0.3-0.3,0.46-0.72,0.46-1.23v-0.45c-0.39,0.45-0.91,0.67-1.61,0.67c-0.7,0-1.28-0.26-1.72-0.76c-0.43-0.5-0.66-1.15-0.66-1.92
			c0-0.79,0.22-1.42,0.66-1.92C326.01,76.3,326.58,76.04,327.29,76.04z M327.48,76.93c-0.46,0-0.83,0.16-1.11,0.5
			c-0.29,0.33-0.45,0.75-0.45,1.29c0,0.53,0.15,0.96,0.45,1.29c0.28,0.33,0.66,0.49,1.11,0.49c0.59,0,1.06-0.29,1.42-0.87v-1.83
			C328.53,77.22,328.06,76.93,327.48,76.93z"/>
		<path class="st3" d="M335.26,74.4v1.75h1.62v0.87h-1.62v2.56c0,0.29,0.08,0.52,0.23,0.68c0.16,0.16,0.38,0.25,0.64,0.25
			c0.3,0,0.55-0.06,0.74-0.16l0.29,0.79c-0.32,0.19-0.68,0.29-1.11,0.29c-0.56,0-1-0.16-1.32-0.48c-0.32-0.32-0.48-0.76-0.48-1.35
			v-2.57h-1.01v-0.87h1.01V74.4H335.26z"/>
		<path class="st3" d="M339.99,76.04c0.74,0,1.31,0.26,1.71,0.75c0.41,0.5,0.62,1.14,0.62,1.89v0.41h-3.79
			c0.01,0.47,0.15,0.83,0.43,1.08c0.27,0.25,0.64,0.38,1.13,0.38c0.62,0,1.09-0.22,1.4-0.66l0.7,0.59c-0.5,0.62-1.21,0.94-2.1,0.94
			c-0.79,0-1.41-0.26-1.88-0.75c-0.47-0.49-0.7-1.14-0.7-1.92s0.23-1.43,0.7-1.93C338.67,76.3,339.26,76.04,339.99,76.04z
			 M339.99,76.91c-0.42,0-0.76,0.12-1.02,0.36s-0.4,0.57-0.43,0.98h2.79c-0.02-0.41-0.14-0.74-0.38-0.98
			C340.71,77.02,340.4,76.91,339.99,76.91z"/>
		<path class="st3" d="M345.55,76.04c0.89,0,1.58,0.38,2.08,1.11l-0.75,0.57c-0.33-0.54-0.77-0.8-1.31-0.8
			c-0.5,0-0.89,0.16-1.17,0.49c-0.28,0.33-0.41,0.76-0.41,1.3c0,0.53,0.14,0.96,0.41,1.29c0.28,0.34,0.68,0.5,1.18,0.5
			c0.55,0,1-0.27,1.32-0.8l0.75,0.57c-0.48,0.74-1.17,1.11-2.08,1.11c-0.8,0-1.43-0.26-1.9-0.75c-0.48-0.5-0.72-1.15-0.72-1.93
			c0-0.79,0.23-1.43,0.7-1.93C344.15,76.3,344.77,76.04,345.55,76.04z"/>
		<path class="st3" d="M349.65,73.5v3.21c0.41-0.45,0.94-0.67,1.58-0.67c0.61,0,1.09,0.2,1.43,0.6c0.35,0.41,0.53,0.94,0.53,1.62
			v3.05h-1.01v-2.99c0-0.39-0.12-0.7-0.33-0.95c-0.21-0.25-0.5-0.36-0.87-0.36c-0.5,0-0.95,0.27-1.34,0.82v3.48h-1.01V73.5H349.65z"
			/>
		<path class="st3" d="M359.17,76.04c0.89,0,1.58,0.38,2.06,1.11l-0.75,0.57c-0.33-0.54-0.76-0.8-1.3-0.8c-0.5,0-0.9,0.16-1.17,0.49
			c-0.28,0.33-0.42,0.76-0.42,1.3c0,0.53,0.14,0.96,0.42,1.29c0.28,0.34,0.68,0.5,1.18,0.5c0.55,0,1-0.27,1.32-0.8l0.75,0.57
			c-0.49,0.74-1.18,1.11-2.08,1.11c-0.8,0-1.43-0.26-1.91-0.75c-0.47-0.5-0.7-1.15-0.7-1.93c0-0.79,0.23-1.43,0.7-1.93
			C357.75,76.3,358.38,76.04,359.17,76.04z"/>
		<path class="st3" d="M362.51,76.81c0.5-0.52,1.14-0.77,1.9-0.77c0.76,0,1.4,0.26,1.9,0.77c0.5,0.5,0.75,1.15,0.75,1.92
			s-0.25,1.41-0.75,1.91s-1.14,0.76-1.9,0.76c-0.76,0-1.4-0.26-1.9-0.76c-0.49-0.5-0.74-1.14-0.74-1.91S362.02,77.32,362.51,76.81z
			 M365.58,77.45c-0.3-0.34-0.7-0.52-1.17-0.52c-0.47,0-0.86,0.18-1.16,0.52c-0.3,0.34-0.46,0.76-0.46,1.29
			c0,0.52,0.15,0.94,0.46,1.27c0.3,0.34,0.69,0.5,1.16,0.5c0.47,0,0.87-0.16,1.17-0.5c0.3-0.33,0.46-0.75,0.46-1.27
			C366.04,78.21,365.88,77.79,365.58,77.45z"/>
		<path class="st3" d="M374.16,76.04c0.59,0,1.04,0.2,1.37,0.6c0.34,0.41,0.5,0.94,0.5,1.62v3.05h-1.02v-2.99
			c0-0.39-0.11-0.7-0.3-0.95c-0.2-0.25-0.47-0.36-0.81-0.36c-0.49,0-0.94,0.28-1.32,0.84c0.01,0.15,0.01,0.26,0.01,0.33v3.13h-1.01
			v-2.99c0-0.39-0.09-0.7-0.29-0.95c-0.21-0.25-0.48-0.36-0.82-0.36c-0.47,0-0.9,0.27-1.3,0.81v3.49h-1.01v-5.16h0.91l0.04,0.62
			c0.39-0.48,0.93-0.73,1.62-0.73c0.74,0,1.28,0.32,1.59,0.95C372.77,76.36,373.39,76.04,374.16,76.04z"/>
		<path class="st3" d="M380.09,76.04c0.7,0,1.28,0.26,1.72,0.76c0.43,0.5,0.66,1.14,0.66,1.92c0,0.77-0.22,1.42-0.66,1.92
			c-0.45,0.5-1.02,0.76-1.72,0.76c-0.69,0-1.23-0.22-1.61-0.67v2.92h-1.01v-7.52h0.91l0.05,0.62
			C378.8,76.29,379.36,76.04,380.09,76.04z M379.91,76.93c-0.59,0-1.06,0.29-1.42,0.88v1.83c0.36,0.57,0.83,0.87,1.42,0.87
			c0.46,0,0.82-0.16,1.11-0.49c0.29-0.33,0.43-0.76,0.43-1.29c0-0.54-0.14-0.96-0.43-1.29C380.73,77.09,380.36,76.93,379.91,76.93z"
			/>
		<path class="st3" d="M385.48,76.04c0.73,0,1.28,0.25,1.65,0.73l0.04-0.62h0.91v5.16h-0.91l-0.04-0.63
			c-0.38,0.49-0.93,0.74-1.65,0.74c-0.7,0-1.28-0.26-1.72-0.76s-0.66-1.15-0.66-1.92c0-0.79,0.21-1.42,0.66-1.92
			S384.77,76.04,385.48,76.04z M385.66,76.93c-0.46,0-0.83,0.16-1.11,0.5c-0.29,0.33-0.45,0.75-0.45,1.29
			c0,0.53,0.15,0.96,0.45,1.29c0.28,0.33,0.66,0.49,1.11,0.49c0.59,0,1.06-0.29,1.41-0.87v-1.83
			C386.72,77.22,386.25,76.93,385.66,76.93z"/>
		<path class="st3" d="M392.25,76.04c0.61,0,1.09,0.2,1.43,0.6c0.35,0.41,0.52,0.94,0.52,1.62v3.05h-1v-2.99
			c0-0.39-0.12-0.7-0.33-0.95c-0.21-0.25-0.5-0.36-0.87-0.36c-0.5,0-0.95,0.27-1.34,0.82v3.48h-1.01v-5.16h0.91l0.05,0.62
			C391,76.29,391.55,76.04,392.25,76.04z"/>
		<path class="st3" d="M396.66,76.15v5.16h-1.01v-5.16H396.66z M396.17,73.82c0.19,0,0.34,0.06,0.47,0.19
			c0.12,0.13,0.19,0.28,0.19,0.47c0,0.19-0.07,0.35-0.19,0.47c-0.13,0.13-0.28,0.19-0.47,0.19c-0.2,0-0.35-0.06-0.48-0.19
			c-0.12-0.12-0.18-0.28-0.18-0.47c0-0.19,0.06-0.34,0.18-0.47C395.82,73.88,395.97,73.82,396.17,73.82z"/>
		<path class="st3" d="M400.24,76.04c0.74,0,1.31,0.26,1.71,0.75c0.41,0.5,0.62,1.14,0.62,1.89v0.41h-3.79
			c0.01,0.47,0.15,0.83,0.43,1.08c0.27,0.25,0.64,0.38,1.13,0.38c0.62,0,1.09-0.22,1.41-0.66l0.69,0.59
			c-0.5,0.62-1.21,0.94-2.1,0.94c-0.79,0-1.41-0.26-1.88-0.75c-0.47-0.49-0.7-1.14-0.7-1.92s0.23-1.43,0.7-1.93
			C398.92,76.3,399.51,76.04,400.24,76.04z M400.24,76.91c-0.42,0-0.76,0.12-1.02,0.36s-0.4,0.57-0.43,0.98h2.79
			c-0.02-0.41-0.14-0.74-0.38-0.98C400.96,77.02,400.65,76.91,400.24,76.91z"/>
		<path class="st3" d="M405.36,76.04c0.68,0,1.25,0.19,1.71,0.56l-0.43,0.79c-0.39-0.3-0.81-0.46-1.28-0.46
			c-0.63,0-0.95,0.2-0.95,0.6c0,0.2,0.08,0.34,0.22,0.43c0.15,0.08,0.43,0.18,0.86,0.28c0.61,0.14,1.04,0.34,1.32,0.6
			c0.28,0.25,0.42,0.57,0.42,0.96c0,0.48-0.19,0.87-0.56,1.16c-0.36,0.29-0.87,0.45-1.5,0.45c-0.8,0-1.45-0.21-1.96-0.63l0.46-0.8
			c0.41,0.35,0.91,0.53,1.51,0.53c0.69,0,1.03-0.21,1.03-0.64c0-0.2-0.07-0.36-0.23-0.46c-0.16-0.11-0.45-0.21-0.86-0.3
			c-0.61-0.13-1.06-0.32-1.31-0.55c-0.27-0.23-0.41-0.55-0.41-0.95c0-0.49,0.18-0.87,0.53-1.15
			C404.28,76.18,404.76,76.04,405.36,76.04z"/>
	</g>
</g>
</svg>
